<mxfile host="app.diagrams.net" modified="2023-12-15T09:11:38.158Z" agent="Mozilla/5.0 (Macintosh; Intel Mac OS X 10_15_7) AppleWebKit/537.36 (KHTML, like Gecko) Chrome/118.0.5993.2467 YaBrowser/23.11.0.2467 Yowser/2.5 Safari/537.36" version="21.6.6" etag="g5ocnXEDz_f4tQA3XOMd" type="github">
  <diagram name="Страница 1" id="YcJ9oTsvfx0K6uPgNO41">
    <mxGraphModel>
      <root>
        <mxCell id="0" />
        <mxCell id="1" parent="0" />
      </root>
    </mxGraphModel>
  </diagram>
</mxfile>
